# xmcd
#
# Track frame offsets:
#	150
#	19145
#	39733
#	65274
#	82151
#	102188
#	119353
#	138730
#	156877
#	174755
#	195327
#	217300
#	237273
#	265887
#
# Disc length: 3993 seconds
#
# Revision: 0
# Processed by: cddbd v1.5.1PL0 Copyright (c) Steve Scherf et al.
# Submitted via: dBpowerAMP V4.0
#
DISCID=c60f970e
DTITLE=rammstein - reise reise
DYEAR=1900
DGENRE=
TTITLE0=reise reise
TTITLE1=mip
TTITLE2=dehd
TTITLE3=dsd
TTITLE4=djehd
TTITLE5=fdssd
TTITLE6=dds
TTITLE7=sdsd
TTITLE8=sdd
TTITLE9=sdsd
TTITLE10=sqwwe
TTITLE11=wee
TTITLE12=weee
TTITLE13=qww
EXTD=
EXTT0=
EXTT1=
EXTT2=
EXTT3=
EXTT4=
EXTT5=
EXTT6=
EXTT7=
EXTT8=
EXTT9=
EXTT10=
EXTT11=
EXTT12=
EXTT13=
PLAYORDER=
